<svg width="67" height="13" viewBox="0 0 67 13" fill="none" xmlns="http://www.w3.org/2000/svg">
<path opacity="0.64" d="M5.434 8.154C5.096 8.154 4.77967 8.09333 4.485 7.972C4.199 7.85067 3.94767 7.67733 3.731 7.452C3.51433 7.22667 3.34533 6.94933 3.224 6.62C3.10267 6.282 3.042 5.90067 3.042 5.476C3.042 5.06 3.107 4.69167 3.237 4.371C3.37567 4.04167 3.55767 3.76433 3.783 3.539C4.00833 3.305 4.26833 3.13167 4.563 3.019C4.85767 2.89767 5.16533 2.837 5.486 2.837C5.91067 2.837 6.253 2.89767 6.513 3.019C6.78167 3.13167 6.96367 3.22267 7.059 3.292L6.812 3.877C6.682 3.80767 6.513 3.734 6.305 3.656C6.10567 3.56933 5.83267 3.526 5.486 3.526C5.00933 3.526 4.61067 3.695 4.29 4.033C3.978 4.371 3.822 4.852 3.822 5.476C3.822 6.11733 3.97367 6.61133 4.277 6.958C4.589 7.296 5.00933 7.465 5.538 7.465C5.91067 7.465 6.201 7.426 6.409 7.348C6.62567 7.26133 6.78167 7.18767 6.877 7.127L7.098 7.751C6.98533 7.82033 6.786 7.907 6.5 8.011C6.214 8.10633 5.85867 8.154 5.434 8.154ZM9.776 5.489C9.776 6.23433 9.65467 6.89733 9.412 7.478C9.16933 8.05867 8.84433 8.55267 8.437 8.96C8.03833 9.35867 7.57033 9.66633 7.033 9.883C6.50433 10.091 5.94967 10.195 5.369 10.195C4.78833 10.195 4.22933 10.091 3.692 9.883C3.16333 9.66633 2.69533 9.35867 2.288 8.96C1.88933 8.55267 1.56867 8.05867 1.326 7.478C1.08333 6.89733 0.962 6.23433 0.962 5.489C0.962 4.75233 1.08333 4.09367 1.326 3.513C1.56867 2.92367 1.88933 2.42967 2.288 2.031C2.69533 1.63233 3.16333 1.329 3.692 1.121C4.22933 0.904333 4.78833 0.796 5.369 0.796C5.94967 0.796 6.50433 0.904333 7.033 1.121C7.57033 1.329 8.03833 1.63233 8.437 2.031C8.84433 2.42967 9.16933 2.92367 9.412 3.513C9.65467 4.09367 9.776 4.75233 9.776 5.489ZM9.009 5.489C9.009 4.891 8.918 4.345 8.736 3.851C8.554 3.357 8.30267 2.93667 7.982 2.59C7.66133 2.23467 7.27567 1.96167 6.825 1.771C6.383 1.58033 5.89767 1.485 5.369 1.485C4.84033 1.485 4.35067 1.58033 3.9 1.771C3.458 1.96167 3.07667 2.23467 2.756 2.59C2.43533 2.93667 2.184 3.357 2.002 3.851C1.82 4.345 1.729 4.891 1.729 5.489C1.729 6.087 1.82 6.633 2.002 7.127C2.184 7.621 2.43533 8.04567 2.756 8.401C3.07667 8.74767 3.458 9.02067 3.9 9.22C4.35067 9.41067 4.84033 9.506 5.369 9.506C5.89767 9.506 6.383 9.41067 6.825 9.22C7.27567 9.02067 7.66133 8.74767 7.982 8.401C8.30267 8.04567 8.554 7.621 8.736 7.127C8.918 6.633 9.009 6.087 9.009 5.489ZM22.0182 5.489C22.0182 6.26033 21.8969 6.932 21.6542 7.504C21.4116 8.076 21.0692 8.55267 20.6272 8.934C20.1939 9.31533 19.6739 9.60133 19.0672 9.792C18.4606 9.98267 17.7932 10.078 17.0652 10.078C16.7012 10.078 16.3199 10.0563 15.9212 10.013C15.5226 9.97833 15.1716 9.922 14.8682 9.844V1.16C15.1716 1.07333 15.5226 1.01267 15.9212 0.978C16.3199 0.934666 16.7012 0.912999 17.0652 0.912999C17.7932 0.912999 18.4606 1.00833 19.0672 1.199C19.6739 1.38967 20.1939 1.67567 20.6272 2.057C21.0692 2.43833 21.4116 2.915 21.6542 3.487C21.8969 4.059 22.0182 4.72633 22.0182 5.489ZM15.7522 9.22C15.8042 9.22867 15.9342 9.246 16.1422 9.272C16.3589 9.298 16.7012 9.311 17.1692 9.311C17.8192 9.311 18.3869 9.22433 18.8722 9.051C19.3576 8.869 19.7649 8.61333 20.0942 8.284C20.4236 7.95467 20.6706 7.556 20.8352 7.088C20.9999 6.61133 21.0822 6.07833 21.0822 5.489C21.0822 4.89967 20.9999 4.371 20.8352 3.903C20.6706 3.435 20.4236 3.03633 20.0942 2.707C19.7649 2.37767 19.3576 2.12633 18.8722 1.953C18.3869 1.771 17.8192 1.68 17.1692 1.68C16.7012 1.68 16.3589 1.693 16.1422 1.719C15.9342 1.745 15.8042 1.76233 15.7522 1.771V9.22ZM27.8484 7.166C27.8484 7.59933 27.8051 8.00233 27.7184 8.375C27.6318 8.739 27.4801 9.05967 27.2634 9.337C27.0554 9.60567 26.7738 9.818 26.4184 9.974C26.0718 10.1213 25.6341 10.195 25.1054 10.195C24.7934 10.195 24.5074 10.1647 24.2474 10.104C23.9874 10.052 23.7578 9.987 23.5584 9.909C23.3591 9.831 23.1901 9.74867 23.0514 9.662C22.9214 9.57533 22.8218 9.49733 22.7524 9.428L23.1684 8.713C23.2464 8.78233 23.3418 8.86033 23.4544 8.947C23.5758 9.025 23.7144 9.09867 23.8704 9.168C24.0264 9.23733 24.1998 9.29367 24.3904 9.337C24.5811 9.38033 24.7891 9.402 25.0144 9.402C25.6818 9.402 26.1714 9.22867 26.4834 8.882C26.8041 8.52667 26.9644 7.92433 26.9644 7.075V0.991H27.8484V7.166ZM30.1534 0.991H31.0374V10H30.1534V0.991ZM34.314 8.765C34.3227 8.843 34.327 8.91233 34.327 8.973C34.327 9.03367 34.327 9.08567 34.327 9.129C34.327 9.66633 34.249 10.182 34.093 10.676C33.9457 11.17 33.7377 11.6337 33.469 12.067L32.845 11.781C33.0443 11.3997 33.183 10.9967 33.261 10.572C33.3477 10.156 33.391 9.72267 33.391 9.272C33.391 9.168 33.3867 9.08133 33.378 9.012C33.378 8.94267 33.3737 8.86033 33.365 8.765H34.314ZM44.2932 3.227C44.2932 3.565 44.2326 3.88567 44.1112 4.189C43.9899 4.48367 43.8252 4.76967 43.6172 5.047C43.4179 5.32433 43.1882 5.593 42.9282 5.853C42.6682 6.113 42.4039 6.373 42.1352 6.633C41.9099 6.84967 41.6889 7.07067 41.4722 7.296C41.2642 7.51267 41.0736 7.73367 40.9002 7.959C40.7356 8.17567 40.6012 8.39233 40.4972 8.609C40.4019 8.817 40.3542 9.025 40.3542 9.233V9.259H44.6052V10H39.4182C39.4182 9.98267 39.4139 9.95233 39.4052 9.909C39.4052 9.857 39.4052 9.78333 39.4052 9.688C39.4052 9.28067 39.4789 8.90367 39.6262 8.557C39.7736 8.20167 39.9599 7.868 40.1852 7.556C40.4192 7.244 40.6749 6.95367 40.9522 6.685C41.2382 6.41633 41.5112 6.15633 41.7712 5.905C41.9879 5.697 42.1916 5.49767 42.3822 5.307C42.5816 5.10767 42.7549 4.904 42.9022 4.696C43.0496 4.488 43.1666 4.267 43.2532 4.033C43.3399 3.799 43.3832 3.54333 43.3832 3.266C43.3832 2.65933 43.2186 2.226 42.8892 1.966C42.5686 1.69733 42.1612 1.563 41.6672 1.563C41.3899 1.563 41.1429 1.59767 40.9262 1.667C40.7096 1.73633 40.5189 1.81867 40.3542 1.914C40.1982 2.00067 40.0639 2.09167 39.9512 2.187C39.8386 2.28233 39.7562 2.356 39.7042 2.408L39.2622 1.823C39.3142 1.76233 39.4052 1.67567 39.5352 1.563C39.6739 1.44167 39.8429 1.32467 40.0422 1.212C40.2502 1.09933 40.4886 1.004 40.7572 0.926C41.0259 0.839333 41.3249 0.796 41.6542 0.796C42.5296 0.796 43.1882 1.01267 43.6302 1.446C44.0722 1.87067 44.2932 2.46433 44.2932 3.227ZM46.4701 5.502C46.4701 3.97667 46.7215 2.811 47.2241 2.005C47.7268 1.199 48.4418 0.796 49.3691 0.796C50.2878 0.796 50.9985 1.199 51.5011 2.005C52.0125 2.811 52.2681 3.97667 52.2681 5.502C52.2681 7.01867 52.0125 8.18 51.5011 8.986C50.9985 9.792 50.2878 10.195 49.3691 10.195C48.4505 10.195 47.7355 9.792 47.2241 8.986C46.7215 8.18 46.4701 7.01867 46.4701 5.502ZM51.3451 5.502C51.3451 4.982 51.3105 4.488 51.2411 4.02C51.1805 3.54333 51.0721 3.123 50.9161 2.759C50.7601 2.395 50.5565 2.10467 50.3051 1.888C50.0538 1.67133 49.7418 1.563 49.3691 1.563C48.9878 1.563 48.6715 1.67133 48.4201 1.888C48.1688 2.10467 47.9651 2.395 47.8091 2.759C47.6618 3.123 47.5535 3.54333 47.4841 4.02C47.4235 4.488 47.3931 4.982 47.3931 5.502C47.3931 6.022 47.4235 6.52033 47.4841 6.997C47.5535 7.465 47.6618 7.881 47.8091 8.245C47.9651 8.60033 48.1688 8.88633 48.4201 9.103C48.6715 9.31967 48.9878 9.428 49.3691 9.428C49.7418 9.428 50.0538 9.31967 50.3051 9.103C50.5565 8.88633 50.7601 8.60033 50.9161 8.245C51.0721 7.881 51.1805 7.465 51.2411 6.997C51.3105 6.52033 51.3451 6.022 51.3451 5.502ZM58.969 3.227C58.969 3.565 58.9083 3.88567 58.787 4.189C58.6657 4.48367 58.501 4.76967 58.293 5.047C58.0937 5.32433 57.864 5.593 57.604 5.853C57.344 6.113 57.0797 6.373 56.811 6.633C56.5857 6.84967 56.3647 7.07067 56.148 7.296C55.94 7.51267 55.7493 7.73367 55.576 7.959C55.4113 8.17567 55.277 8.39233 55.173 8.609C55.0777 8.817 55.03 9.025 55.03 9.233V9.259H59.281V10H54.094C54.094 9.98267 54.0897 9.95233 54.081 9.909C54.081 9.857 54.081 9.78333 54.081 9.688C54.081 9.28067 54.1547 8.90367 54.302 8.557C54.4493 8.20167 54.6357 7.868 54.861 7.556C55.095 7.244 55.3507 6.95367 55.628 6.685C55.914 6.41633 56.187 6.15633 56.447 5.905C56.6637 5.697 56.8673 5.49767 57.058 5.307C57.2573 5.10767 57.4307 4.904 57.578 4.696C57.7253 4.488 57.8423 4.267 57.929 4.033C58.0157 3.799 58.059 3.54333 58.059 3.266C58.059 2.65933 57.8943 2.226 57.565 1.966C57.2443 1.69733 56.837 1.563 56.343 1.563C56.0657 1.563 55.8187 1.59767 55.602 1.667C55.3853 1.73633 55.1947 1.81867 55.03 1.914C54.874 2.00067 54.7397 2.09167 54.627 2.187C54.5143 2.28233 54.432 2.356 54.38 2.408L53.938 1.823C53.99 1.76233 54.081 1.67567 54.211 1.563C54.3497 1.44167 54.5187 1.32467 54.718 1.212C54.926 1.09933 55.1643 1.004 55.433 0.926C55.7017 0.839333 56.0007 0.796 56.33 0.796C57.2053 0.796 57.864 1.01267 58.306 1.446C58.748 1.87067 58.969 2.46433 58.969 3.227ZM61.1459 5.502C61.1459 3.97667 61.3972 2.811 61.8999 2.005C62.4026 1.199 63.1176 0.796 64.0449 0.796C64.9636 0.796 65.6742 1.199 66.1769 2.005C66.6882 2.811 66.9439 3.97667 66.9439 5.502C66.9439 7.01867 66.6882 8.18 66.1769 8.986C65.6742 9.792 64.9636 10.195 64.0449 10.195C63.1262 10.195 62.4112 9.792 61.8999 8.986C61.3972 8.18 61.1459 7.01867 61.1459 5.502ZM66.0209 5.502C66.0209 4.982 65.9862 4.488 65.9169 4.02C65.8562 3.54333 65.7479 3.123 65.5919 2.759C65.4359 2.395 65.2322 2.10467 64.9809 1.888C64.7296 1.67133 64.4176 1.563 64.0449 1.563C63.6636 1.563 63.3472 1.67133 63.0959 1.888C62.8446 2.10467 62.6409 2.395 62.4849 2.759C62.3376 3.123 62.2292 3.54333 62.1599 4.02C62.0992 4.488 62.0689 4.982 62.0689 5.502C62.0689 6.022 62.0992 6.52033 62.1599 6.997C62.2292 7.465 62.3376 7.881 62.4849 8.245C62.6409 8.60033 62.8446 8.88633 63.0959 9.103C63.3472 9.31967 63.6636 9.428 64.0449 9.428C64.4176 9.428 64.7296 9.31967 64.9809 9.103C65.2322 8.88633 65.4359 8.60033 65.5919 8.245C65.7479 7.881 65.8562 7.465 65.9169 6.997C65.9862 6.52033 66.0209 6.022 66.0209 5.502Z" fill="white"/>
</svg>
